<?xml version="1.0" standalone="no"?>
<!DOCTYPE svg PUBLIC "-//W3C//DTD SVG 20010904//EN"
 "http://www.w3.org/TR/2001/REC-SVG-20010904/DTD/svg10.dtd">
<svg version="1.0" xmlns="http://www.w3.org/2000/svg"
 width="239.000000pt" height="239.000000pt" viewBox="0 0 239.000000 239.000000"
 preserveAspectRatio="xMidYMid meet">
<metadata>
Created by potrace 1.14, written by Peter Selinger 2001-2017
</metadata>
<g transform="translate(0.000000,239.000000) scale(0.100000,-0.100000)"
fill="#000000" stroke="none">
<path d="M400 1200 l0 -790 790 0 790 0 0 250 0 250 -50 0 -50 0 0 -200 0
-200 -690 0 -690 0 0 690 0 690 690 0 690 0 0 -200 0 -200 50 0 50 0 0 250 0
250 -790 0 -790 0 0 -790z"/>
<path d="M1005 1585 c-98 -51 -181 -99 -185 -106 -5 -11 -6 -179 -1 -211 0 -5
76 -46 169 -92 92 -47 195 -100 230 -119 l64 -34 -49 -25 -48 -25 -165 79
c-91 44 -174 83 -185 88 -19 7 -20 4 -20 -116 l-1 -124 185 -94 185 -94 186
94 186 95 -1 119 c-1 66 -3 121 -6 124 -2 2 -107 54 -233 116 l-230 111 48 29
49 28 183 -94 c101 -51 185 -92 185 -91 1 1 2 59 3 129 l1 126 -30 15 c-16 8
-100 49 -186 90 l-156 75 -178 -93z m154 -44 l0 -70 -42 -22 c-23 -12 -53 -28
-66 -35 -21 -11 -31 -9 -87 19 -68 34 -74 41 -46 50 9 4 67 33 127 66 61 32
111 59 112 60 1 1 2 -30 2 -68z m281 -399 l65 -30 0 -65 c0 -36 -3 -69 -7 -72
-4 -4 -33 7 -65 25 -52 30 -233 124 -478 249 l-89 46 -1 66 0 66 255 -127
c140 -70 284 -141 320 -158z m-78 -162 c47 -20 100 -56 97 -65 -2 -5 -59 -37
-126 -71 l-123 -61 0 73 0 73 53 29 c60 34 67 36 99 22z"/>
<path d="M1880 1325 l0 -75 -75 0 -75 0 0 -50 0 -50 75 0 75 0 0 -75 0 -75 50
0 50 0 0 75 0 75 75 0 75 0 0 50 0 50 -75 0 -75 0 0 75 0 75 -50 0 -50 0 0
-75z"/>
</g>
</svg>
