<svg width="600" height="600" viewBox="0 0 600 600" fill="none" xmlns="http://www.w3.org/2000/svg">
<circle cx="382.5" cy="399.5" r="132.5" stroke="#FFFEFE" stroke-width="20"/>

<g class="sun_line sun_line_1">
<line x1="381.5" y1="226.5" x2="381.5" y2="70.5" stroke="#FFFEFE" stroke-width="25" stroke-linecap="round"/>
<path d="M388.04 76.5913C388.04 77.9613 387.7 79.0113 387.02 79.7413C386.35 80.4713 385.45 80.8363 384.32 80.8363C383.87 80.8363 383.415 80.7663 382.955 80.6263C382.505 80.4963 382.095 80.2813 381.725 79.9813C381.355 79.6913 381.055 79.2963 380.825 78.7963C380.605 78.3063 380.495 77.7013 380.495 76.9813V75.4213H377V73.2463H388.04V76.5913ZM382.61 76.9663C382.61 77.4063 382.705 77.7463 382.895 77.9863C383.095 78.2363 383.325 78.4113 383.585 78.5113C383.845 78.6113 384.07 78.6613 384.26 78.6613C384.37 78.6613 384.515 78.6413 384.695 78.6013C384.885 78.5713 385.075 78.5013 385.265 78.3913C385.455 78.2813 385.615 78.1113 385.745 77.8813C385.875 77.6613 385.94 77.3613 385.94 76.9813V75.4213H382.61V76.9663ZM380.36 81.9274C381.03 81.9274 381.63 82.0824 382.16 82.3924C382.69 82.7124 383.105 83.1574 383.405 83.7274C383.715 84.2974 383.87 84.9524 383.87 85.6924C383.87 86.4424 383.715 87.0924 383.405 87.6424C383.105 88.1924 382.69 88.6124 382.16 88.9024C381.63 89.2024 381.03 89.3524 380.36 89.3524C379.69 89.3524 379.085 89.2024 378.545 88.9024C378.015 88.6124 377.595 88.1924 377.285 87.6424C376.975 87.0924 376.82 86.4324 376.82 85.6624C376.82 84.9424 376.96 84.2974 377.24 83.7274C377.52 83.1674 377.925 82.7274 378.455 82.4074C378.985 82.0874 379.62 81.9274 380.36 81.9274ZM380.345 84.0424C379.825 84.0424 379.39 84.1924 379.04 84.4924C378.7 84.7924 378.53 85.1724 378.53 85.6324C378.53 86.1224 378.7 86.5124 379.04 86.8024C379.39 87.0924 379.825 87.2374 380.345 87.2374C380.865 87.2374 381.295 87.0924 381.635 86.8024C381.985 86.5124 382.16 86.1224 382.16 85.6324C382.16 85.1724 381.985 84.7924 381.635 84.4924C381.295 84.1924 380.865 84.0424 380.345 84.0424ZM388.835 91.0068V93.1068H377V91.0068H388.835ZM383.555 95.2695V97.3695H377V95.2695H383.555ZM385.88 95.2245C386.19 95.2245 386.445 95.3445 386.645 95.5845C386.845 95.8345 386.945 96.0995 386.945 96.3795C386.945 96.6595 386.845 96.9145 386.645 97.1445C386.445 97.3845 386.19 97.5045 385.88 97.5045C385.57 97.5045 385.315 97.3845 385.115 97.1445C384.925 96.9145 384.83 96.6595 384.83 96.3795C384.83 96.0995 384.925 95.8345 385.115 95.5845C385.315 95.3445 385.57 95.2245 385.88 95.2245ZM386.435 100.147V102.247H383.585V103.837H381.95V102.247H377V100.147H381.95V99.1271H383.585V100.147H386.435ZM383.555 105.435V107.535H377V105.435H383.555ZM385.88 105.39C386.19 105.39 386.445 105.51 386.645 105.75C386.845 106 386.945 106.265 386.945 106.545C386.945 106.825 386.845 107.08 386.645 107.31C386.445 107.55 386.19 107.67 385.88 107.67C385.57 107.67 385.315 107.55 385.115 107.31C384.925 107.08 384.83 106.825 384.83 106.545C384.83 106.265 384.925 106 385.115 105.75C385.315 105.51 385.57 105.39 385.88 105.39ZM376.82 112.308C376.82 111.748 376.955 111.228 377.225 110.748C377.495 110.278 377.885 109.898 378.395 109.608C378.915 109.328 379.545 109.188 380.285 109.188C381.035 109.188 381.675 109.348 382.205 109.668C382.745 109.988 383.16 110.403 383.45 110.913C383.74 111.433 383.885 111.993 383.885 112.593C383.885 113.103 383.81 113.533 383.66 113.883C383.51 114.233 383.305 114.538 383.045 114.798H383.705V116.898H373.85V114.813H377.57C377.36 114.553 377.18 114.203 377.03 113.763C376.89 113.333 376.82 112.848 376.82 112.308ZM378.47 113.058C378.47 113.478 378.565 113.843 378.755 114.153C378.945 114.463 379.2 114.678 379.52 114.798H381.125C381.455 114.618 381.7 114.388 381.86 114.108C382.03 113.828 382.115 113.478 382.115 113.058C382.115 112.748 382.035 112.458 381.875 112.188C381.715 111.928 381.495 111.718 381.215 111.558C380.935 111.398 380.62 111.318 380.27 111.318C379.92 111.318 379.61 111.398 379.34 111.558C379.07 111.718 378.855 111.928 378.695 112.188C378.545 112.458 378.47 112.748 378.47 113.058ZM376.685 121.174C376.685 120.584 376.865 120.089 377.225 119.689C377.595 119.289 378.07 119.079 378.65 119.059H383.555V121.159H379.43C379.14 121.179 378.905 121.254 378.725 121.384C378.555 121.514 378.47 121.734 378.47 122.044C378.47 122.514 378.695 122.884 379.145 123.154C379.605 123.424 380.185 123.559 380.885 123.559H383.555V125.659H377V123.754L378.05 123.604C377.64 123.384 377.31 123.069 377.06 122.659C376.81 122.249 376.685 121.754 376.685 121.174ZM376.82 131.043C376.82 130.243 376.97 129.563 377.27 129.003C377.57 128.453 377.985 128.033 378.515 127.743C379.045 127.453 379.655 127.308 380.345 127.308C381.005 127.308 381.6 127.478 382.13 127.818C382.66 128.158 383.08 128.613 383.39 129.183C383.71 129.753 383.87 130.388 383.87 131.088C383.87 132.028 383.595 132.798 383.045 133.398C382.505 134.008 381.72 134.403 380.69 134.583L379.16 129.783C378.79 130.103 378.605 130.538 378.605 131.088C378.605 131.318 378.645 131.538 378.725 131.748C378.805 131.968 378.91 132.183 379.04 132.393L377.48 133.323C377.28 132.973 377.12 132.593 377 132.183C376.88 131.783 376.82 131.403 376.82 131.043ZM380.465 129.378C380.415 129.378 380.37 129.378 380.33 129.378L381.305 132.258C381.555 132.168 381.77 132.023 381.95 131.823C382.14 131.623 382.235 131.323 382.235 130.923C382.235 130.453 382.075 130.078 381.755 129.798C381.435 129.518 381.005 129.378 380.465 129.378ZM376.82 143.657C376.82 143.047 376.96 142.502 377.24 142.022C377.53 141.542 377.945 141.162 378.485 140.882C379.025 140.612 379.665 140.477 380.405 140.477C381.145 140.477 381.775 140.627 382.295 140.927C382.815 141.227 383.21 141.637 383.48 142.157C383.75 142.677 383.885 143.267 383.885 143.927C383.885 144.347 383.82 144.747 383.69 145.127C383.56 145.517 383.36 145.842 383.09 146.102H388.835V148.187H377V146.087H377.69C377.44 145.767 377.23 145.407 377.06 145.007C376.9 144.607 376.82 144.157 376.82 143.657ZM378.59 144.347C378.59 144.767 378.67 145.117 378.83 145.397C379 145.677 379.25 145.907 379.58 146.087H381.185C381.505 145.967 381.76 145.752 381.95 145.442C382.14 145.132 382.235 144.767 382.235 144.347C382.235 144.037 382.155 143.747 381.995 143.477C381.845 143.217 381.635 143.007 381.365 142.847C381.095 142.687 380.785 142.607 380.435 142.607C380.085 142.607 379.77 142.687 379.49 142.847C379.21 143.007 378.99 143.217 378.83 143.477C378.67 143.747 378.59 144.037 378.59 144.347ZM376.82 153.573C376.82 152.773 376.97 152.093 377.27 151.533C377.57 150.983 377.985 150.563 378.515 150.273C379.045 149.983 379.655 149.838 380.345 149.838C381.005 149.838 381.6 150.008 382.13 150.348C382.66 150.688 383.08 151.143 383.39 151.713C383.71 152.283 383.87 152.918 383.87 153.618C383.87 154.558 383.595 155.328 383.045 155.928C382.505 156.538 381.72 156.933 380.69 157.113L379.16 152.313C378.79 152.633 378.605 153.068 378.605 153.618C378.605 153.848 378.645 154.068 378.725 154.278C378.805 154.498 378.91 154.713 379.04 154.923L377.48 155.853C377.28 155.503 377.12 155.123 377 154.713C376.88 154.313 376.82 153.933 376.82 153.573ZM380.465 151.908C380.415 151.908 380.37 151.908 380.33 151.908L381.305 154.788C381.555 154.698 381.77 154.553 381.95 154.353C382.14 154.153 382.235 153.853 382.235 153.453C382.235 152.983 382.075 152.608 381.755 152.328C381.435 152.048 381.005 151.908 380.465 151.908ZM376.865 160.769C376.865 160.229 376.96 159.724 377.15 159.254C377.34 158.794 377.605 158.404 377.945 158.084L379.1 158.954C378.81 159.274 378.6 159.569 378.47 159.839C378.35 160.119 378.29 160.369 378.29 160.589C378.29 160.849 378.33 161.064 378.41 161.234C378.49 161.404 378.62 161.489 378.8 161.489C378.97 161.489 379.105 161.419 379.205 161.279C379.305 161.149 379.385 160.979 379.445 160.769C379.515 160.559 379.585 160.334 379.655 160.094C379.845 159.494 380.12 159.059 380.48 158.789C380.85 158.529 381.25 158.399 381.68 158.399C382.01 158.399 382.34 158.484 382.67 158.654C383.01 158.834 383.29 159.114 383.51 159.494C383.74 159.884 383.855 160.384 383.855 160.994C383.855 161.544 383.8 162.009 383.69 162.389C383.58 162.769 383.4 163.129 383.15 163.469L381.92 162.674C382.07 162.484 382.195 162.269 382.295 162.029C382.405 161.799 382.465 161.584 382.475 161.384C382.485 161.114 382.435 160.904 382.325 160.754C382.225 160.604 382.105 160.529 381.965 160.529C381.775 160.519 381.625 160.589 381.515 160.739C381.405 160.899 381.32 161.099 381.26 161.339C381.2 161.579 381.13 161.814 381.05 162.044C380.89 162.514 380.66 162.889 380.36 163.169C380.07 163.449 379.68 163.589 379.19 163.589C378.79 163.589 378.41 163.484 378.05 163.274C377.7 163.074 377.415 162.764 377.195 162.344C376.975 161.934 376.865 161.409 376.865 160.769ZM376.82 172.896C376.82 172.286 376.96 171.741 377.24 171.261C377.53 170.781 377.945 170.401 378.485 170.121C379.025 169.851 379.665 169.716 380.405 169.716C381.145 169.716 381.775 169.866 382.295 170.166C382.815 170.466 383.21 170.876 383.48 171.396C383.75 171.916 383.885 172.506 383.885 173.166C383.885 173.586 383.82 173.986 383.69 174.366C383.56 174.756 383.36 175.081 383.09 175.341H388.835V177.426H377V175.326H377.69C377.44 175.006 377.23 174.646 377.06 174.246C376.9 173.846 376.82 173.396 376.82 172.896ZM378.59 173.586C378.59 174.006 378.67 174.356 378.83 174.636C379 174.916 379.25 175.146 379.58 175.326H381.185C381.505 175.206 381.76 174.991 381.95 174.681C382.14 174.371 382.235 174.006 382.235 173.586C382.235 173.276 382.155 172.986 381.995 172.716C381.845 172.456 381.635 172.246 381.365 172.086C381.095 171.926 380.785 171.846 380.435 171.846C380.085 171.846 379.77 171.926 379.49 172.086C379.21 172.246 378.99 172.456 378.83 172.716C378.67 172.986 378.59 173.276 378.59 173.586ZM380.36 179.076C381.03 179.076 381.63 179.231 382.16 179.541C382.69 179.861 383.105 180.306 383.405 180.876C383.715 181.446 383.87 182.101 383.87 182.841C383.87 183.591 383.715 184.241 383.405 184.791C383.105 185.341 382.69 185.761 382.16 186.051C381.63 186.351 381.03 186.501 380.36 186.501C379.69 186.501 379.085 186.351 378.545 186.051C378.015 185.761 377.595 185.341 377.285 184.791C376.975 184.241 376.82 183.581 376.82 182.811C376.82 182.091 376.96 181.446 377.24 180.876C377.52 180.316 377.925 179.876 378.455 179.556C378.985 179.236 379.62 179.076 380.36 179.076ZM380.345 181.191C379.825 181.191 379.39 181.341 379.04 181.641C378.7 181.941 378.53 182.321 378.53 182.781C378.53 183.271 378.7 183.661 379.04 183.951C379.39 184.241 379.825 184.386 380.345 184.386C380.865 184.386 381.295 184.241 381.635 183.951C381.985 183.661 382.16 183.271 382.16 182.781C382.16 182.321 381.985 181.941 381.635 181.641C381.295 181.341 380.865 181.191 380.345 181.191ZM383.555 190.06L382.505 190.21C382.915 190.44 383.245 190.765 383.495 191.185C383.745 191.605 383.87 192.115 383.87 192.715C383.87 193.335 383.685 193.85 383.315 194.26C382.955 194.68 382.485 194.895 381.905 194.905H377V192.805H381.125C381.415 192.795 381.645 192.715 381.815 192.565C381.995 192.425 382.085 192.185 382.085 191.845C382.085 191.355 381.855 190.965 381.395 190.675C380.945 190.395 380.37 190.255 379.67 190.255H377V188.155H383.555V190.06ZM383.555 198.966L382.505 199.116C382.915 199.346 383.245 199.671 383.495 200.091C383.745 200.511 383.87 201.021 383.87 201.621C383.87 202.241 383.685 202.756 383.315 203.166C382.955 203.586 382.485 203.801 381.905 203.811H377V201.711H381.125C381.415 201.701 381.645 201.621 381.815 201.471C381.995 201.331 382.085 201.091 382.085 200.751C382.085 200.261 381.855 199.871 381.395 199.581C380.945 199.301 380.37 199.161 379.67 199.161H377V197.061H383.555V198.966ZM376.82 209.193C376.82 208.393 376.97 207.713 377.27 207.153C377.57 206.603 377.985 206.183 378.515 205.893C379.045 205.603 379.655 205.458 380.345 205.458C381.005 205.458 381.6 205.628 382.13 205.968C382.66 206.308 383.08 206.763 383.39 207.333C383.71 207.903 383.87 208.538 383.87 209.238C383.87 210.178 383.595 210.948 383.045 211.548C382.505 212.158 381.72 212.553 380.69 212.733L379.16 207.933C378.79 208.253 378.605 208.688 378.605 209.238C378.605 209.468 378.645 209.688 378.725 209.898C378.805 210.118 378.91 210.333 379.04 210.543L377.48 211.473C377.28 211.123 377.12 210.743 377 210.333C376.88 209.933 376.82 209.553 376.82 209.193ZM380.465 207.528C380.415 207.528 380.37 207.528 380.33 207.528L381.305 210.408C381.555 210.318 381.77 210.173 381.95 209.973C382.14 209.773 382.235 209.473 382.235 209.073C382.235 208.603 382.075 208.228 381.755 207.948C381.435 207.668 381.005 207.528 380.465 207.528ZM386.675 211.443L384.65 209.223V207.948L386.675 209.118V211.443ZM376.82 217.484C376.82 216.684 376.97 216.004 377.27 215.444C377.57 214.894 377.985 214.474 378.515 214.184C379.045 213.894 379.655 213.749 380.345 213.749C381.005 213.749 381.6 213.919 382.13 214.259C382.66 214.599 383.08 215.054 383.39 215.624C383.71 216.194 383.87 216.829 383.87 217.529C383.87 218.469 383.595 219.239 383.045 219.839C382.505 220.449 381.72 220.844 380.69 221.024L379.16 216.224C378.79 216.544 378.605 216.979 378.605 217.529C378.605 217.759 378.645 217.979 378.725 218.189C378.805 218.409 378.91 218.624 379.04 218.834L377.48 219.764C377.28 219.414 377.12 219.034 377 218.624C376.88 218.224 376.82 217.844 376.82 217.484ZM380.465 215.819C380.415 215.819 380.37 215.819 380.33 215.819L381.305 218.699C381.555 218.609 381.77 218.464 381.95 218.264C382.14 218.064 382.235 217.764 382.235 217.364C382.235 216.894 382.075 216.519 381.755 216.239C381.435 215.959 381.005 215.819 380.465 215.819ZM376.865 224.68C376.865 224.14 376.96 223.635 377.15 223.165C377.34 222.705 377.605 222.315 377.945 221.995L379.1 222.865C378.81 223.185 378.6 223.48 378.47 223.75C378.35 224.03 378.29 224.28 378.29 224.5C378.29 224.76 378.33 224.975 378.41 225.145C378.49 225.315 378.62 225.4 378.8 225.4C378.97 225.4 379.105 225.33 379.205 225.19C379.305 225.06 379.385 224.89 379.445 224.68C379.515 224.47 379.585 224.245 379.655 224.005C379.845 223.405 380.12 222.97 380.48 222.7C380.85 222.44 381.25 222.31 381.68 222.31C382.01 222.31 382.34 222.395 382.67 222.565C383.01 222.745 383.29 223.025 383.51 223.405C383.74 223.795 383.855 224.295 383.855 224.905C383.855 225.455 383.8 225.92 383.69 226.3C383.58 226.68 383.4 227.04 383.15 227.38L381.92 226.585C382.07 226.395 382.195 226.18 382.295 225.94C382.405 225.71 382.465 225.495 382.475 225.295C382.485 225.025 382.435 224.815 382.325 224.665C382.225 224.515 382.105 224.44 381.965 224.44C381.775 224.43 381.625 224.5 381.515 224.65C381.405 224.81 381.32 225.01 381.26 225.25C381.2 225.49 381.13 225.725 381.05 225.955C380.89 226.425 380.66 226.8 380.36 227.08C380.07 227.36 379.68 227.5 379.19 227.5C378.79 227.5 378.41 227.395 378.05 227.185C377.7 226.985 377.415 226.675 377.195 226.255C376.975 225.845 376.865 225.32 376.865 224.68Z" fill="#09090B"/>
</g>

<g class="sun_line sun_line_2">
<line x1="235.415" y1="141.551" x2="296.785" y2="248.151" stroke="#FFFEFE" stroke-width="25" stroke-linecap="round" stroke-linejoin="round"/>
<path d="M250.827 155.356L251.912 157.241L242.344 162.75L241.259 160.865L250.827 155.356ZM250.225 163.3L249.39 163.954C249.86 163.949 250.308 164.066 250.734 164.305C251.16 164.545 251.523 164.924 251.823 165.444C252.132 165.981 252.229 166.52 252.112 167.06C252.01 167.604 251.71 168.024 251.212 168.322L246.961 170.77L245.914 168.95L249.489 166.892C249.735 166.738 249.894 166.554 249.967 166.339C250.053 166.128 250.011 165.875 249.842 165.581C249.597 165.156 249.203 164.933 248.66 164.911C248.13 164.893 247.562 165.058 246.955 165.408L244.641 166.74L243.594 164.92L249.274 161.649L250.225 163.3ZM248.352 173.184L252.447 170.827L251.893 169.865L253.505 168.937L254.058 169.899L256.034 168.761C256.78 168.332 257.509 168.195 258.221 168.351C258.947 168.509 259.545 168.996 260.014 169.811C260.153 170.053 260.269 170.345 260.361 170.684C260.466 171.027 260.501 171.359 260.466 171.679L258.712 171.668C258.775 171.517 258.788 171.37 258.753 171.229C258.732 171.091 258.691 170.971 258.631 170.867C258.481 170.607 258.272 170.444 258.004 170.379C257.736 170.314 257.411 170.392 257.03 170.611L255.106 171.719L256.094 173.435L254.482 174.363L253.494 172.647L249.399 175.004L248.352 173.184ZM253.721 175.776C254.301 175.441 254.899 175.276 255.513 175.281C256.132 175.293 256.713 175.472 257.258 175.816C257.811 176.156 258.272 176.646 258.641 177.287C259.015 177.937 259.205 178.578 259.211 179.209C259.225 179.836 259.075 180.407 258.761 180.922C258.451 181.447 258.006 181.876 257.425 182.21C256.845 182.545 256.245 182.717 255.628 182.726C255.024 182.739 254.45 182.585 253.907 182.263C253.364 181.941 252.9 181.446 252.516 180.779C252.157 180.155 251.957 179.526 251.915 178.892C251.878 178.267 252.009 177.684 252.309 177.142C252.609 176.6 253.079 176.145 253.721 175.776ZM254.763 177.616C254.312 177.876 254.01 178.223 253.856 178.657C253.711 179.087 253.754 179.501 253.983 179.9C254.228 180.324 254.57 180.577 255.009 180.659C255.457 180.736 255.906 180.644 256.357 180.385C256.808 180.126 257.108 179.785 257.258 179.364C257.417 178.938 257.374 178.513 257.129 178.089C256.9 177.69 256.558 177.448 256.105 177.362C255.661 177.272 255.213 177.357 254.763 177.616ZM256.284 187.234C256.015 186.766 255.845 186.281 255.776 185.779C255.711 185.285 255.746 184.815 255.881 184.368L257.316 184.546C257.224 184.968 257.189 185.328 257.211 185.627C257.247 185.93 257.32 186.176 257.43 186.367C257.559 186.592 257.701 186.759 257.855 186.866C258.01 186.973 258.165 186.982 258.321 186.892C258.468 186.808 258.55 186.68 258.567 186.508C258.589 186.346 258.573 186.159 258.52 185.947C258.476 185.73 258.425 185.5 258.366 185.257C258.231 184.642 258.252 184.128 258.429 183.714C258.62 183.304 258.902 182.992 259.275 182.778C259.561 182.613 259.889 182.522 260.26 182.505C260.645 182.491 261.027 182.594 261.407 182.813C261.801 183.037 262.15 183.413 262.455 183.941C262.729 184.418 262.913 184.848 263.008 185.233C263.102 185.617 263.125 186.019 263.078 186.438L261.616 186.363C261.651 186.123 261.652 185.875 261.619 185.617C261.6 185.362 261.544 185.146 261.453 184.968C261.327 184.729 261.179 184.572 261.009 184.497C260.847 184.417 260.706 184.411 260.585 184.481C260.415 184.567 260.32 184.703 260.299 184.888C260.284 185.081 260.31 185.297 260.378 185.535C260.445 185.773 260.502 186.012 260.548 186.251C260.643 186.738 260.631 187.178 260.511 187.57C260.399 187.957 260.131 188.273 259.706 188.518C259.36 188.717 258.978 188.816 258.561 188.814C258.158 188.815 257.757 188.688 257.356 188.434C256.961 188.189 256.604 187.789 256.284 187.234ZM271.377 189.457L272.424 191.277L262.168 197.182L261.12 195.362L271.377 189.457ZM264.7 201.941C264.301 201.248 264.091 200.584 264.072 199.949C264.058 199.322 264.208 198.751 264.522 198.236C264.837 197.72 265.293 197.29 265.891 196.946C266.463 196.616 267.064 196.467 267.693 196.497C268.322 196.527 268.913 196.712 269.466 197.051C270.027 197.386 270.483 197.856 270.832 198.463C271.301 199.277 271.447 200.082 271.27 200.876C271.106 201.674 270.623 202.408 269.82 203.078L266.099 199.682C265.938 200.144 265.995 200.613 266.269 201.09C266.384 201.289 266.528 201.46 266.703 201.602C266.882 201.752 267.08 201.886 267.297 202.003L266.409 203.588C266.061 203.384 265.733 203.135 265.425 202.839C265.121 202.553 264.879 202.253 264.7 201.941ZM267.028 198.68C266.985 198.705 266.946 198.727 266.911 198.747L269.193 200.756C269.365 200.554 269.479 200.321 269.535 200.058C269.6 199.789 269.532 199.482 269.333 199.135C269.098 198.728 268.773 198.483 268.356 198.4C267.938 198.317 267.496 198.41 267.028 198.68ZM274.363 198.974L271.501 198.06L270.864 196.956L273.203 196.959L274.363 198.974ZM266.215 210.826C265.921 210.315 265.732 209.847 265.649 209.421C265.57 209.005 265.548 208.625 265.582 208.283C265.615 207.941 265.655 207.629 265.701 207.349L267.563 207.696C267.496 208 267.455 208.33 267.44 208.684C267.421 209.053 267.537 209.454 267.786 209.887C268.035 210.32 268.365 210.633 268.775 210.823C269.181 211.028 269.597 211.008 270.021 210.764L270.827 210.3C270.464 210.29 270.083 210.169 269.684 209.937C269.294 209.7 268.939 209.304 268.62 208.749C268.325 208.238 268.181 207.687 268.186 207.095C268.205 206.507 268.366 205.953 268.667 205.434C268.976 204.909 269.421 204.48 270.002 204.146C270.6 203.802 271.208 203.636 271.827 203.649C272.455 203.657 273.03 203.804 273.554 204.092C274.077 204.379 274.48 204.769 274.765 205.263C275.049 205.757 275.22 206.225 275.277 206.665C275.348 207.108 275.334 207.474 275.234 207.762L275.759 207.651L276.724 209.328L271.043 212.599C270.489 212.918 269.909 213.044 269.305 212.976C268.692 212.914 268.114 212.692 267.572 212.312C267.027 211.945 266.574 211.45 266.215 210.826ZM271.109 205.949C270.659 206.208 270.365 206.579 270.227 207.062C270.098 207.54 270.161 208 270.416 208.442C270.835 209.17 271.423 209.53 272.179 209.521L273.57 208.72C273.778 208.439 273.884 208.113 273.889 207.741C273.894 207.369 273.789 206.996 273.575 206.624C273.32 206.182 272.958 205.894 272.489 205.76C272.028 205.621 271.569 205.684 271.109 205.949ZM273.341 216.95C273.036 216.421 272.863 215.88 272.822 215.327C272.794 214.778 272.929 214.25 273.226 213.744C273.523 213.239 274.014 212.789 274.699 212.395C275.34 212.025 275.97 211.836 276.587 211.827C277.205 211.817 277.762 211.952 278.258 212.232C278.762 212.507 279.152 212.883 279.426 213.36C279.75 213.923 279.904 214.4 279.886 214.791C279.874 215.19 279.809 215.539 279.693 215.837L280.345 215.617L281.318 217.307L275.637 220.578L274.589 218.758L275.291 218.354C275.155 218.317 274.967 218.252 274.729 218.158C274.495 218.074 274.254 217.935 274.006 217.744C273.757 217.552 273.535 217.288 273.341 216.95ZM275.122 216.617C275.486 217.249 276.037 217.544 276.773 217.501L278.164 216.7C278.382 216.436 278.498 216.127 278.513 215.772C278.533 215.426 278.443 215.08 278.243 214.733C278.019 214.343 277.677 214.09 277.218 213.973C276.767 213.852 276.312 213.924 275.853 214.188C275.549 214.363 275.316 214.589 275.154 214.868C274.991 215.146 274.905 215.438 274.896 215.743C274.892 216.057 274.967 216.348 275.122 216.617ZM286.973 216.548L288.021 218.368L277.765 224.273L276.717 222.453L286.973 216.548ZM280.297 229.032C279.898 228.339 279.688 227.675 279.669 227.04C279.654 226.413 279.804 225.842 280.119 225.326C280.434 224.811 280.89 224.381 281.488 224.036C282.06 223.707 282.66 223.558 283.289 223.588C283.918 223.618 284.509 223.803 285.062 224.142C285.624 224.476 286.08 224.947 286.429 225.553C286.898 226.368 287.044 227.173 286.866 227.967C286.703 228.765 286.22 229.499 285.417 230.169L281.696 226.773C281.535 227.234 281.592 227.704 281.866 228.18C281.981 228.38 282.125 228.55 282.299 228.692C282.478 228.843 282.677 228.977 282.894 229.094L282.006 230.679C281.658 230.475 281.33 230.226 281.021 229.93C280.718 229.643 280.476 229.344 280.297 229.032ZM282.625 225.77C282.581 225.795 282.542 225.818 282.508 225.838L284.79 227.847C284.961 227.644 285.075 227.412 285.132 227.148C285.197 226.88 285.129 226.573 284.93 226.226C284.695 225.819 284.369 225.574 283.952 225.491C283.535 225.408 283.093 225.501 282.625 225.77ZM283.926 235.246C283.657 234.778 283.487 234.293 283.417 233.791C283.352 233.297 283.387 232.827 283.522 232.38L284.957 232.558C284.866 232.98 284.831 233.34 284.853 233.639C284.889 233.942 284.961 234.188 285.071 234.379C285.201 234.604 285.343 234.771 285.497 234.878C285.651 234.985 285.806 234.994 285.962 234.904C286.11 234.82 286.192 234.692 286.208 234.52C286.23 234.358 286.215 234.171 286.162 233.959C286.118 233.742 286.066 233.512 286.007 233.269C285.872 232.654 285.894 232.14 286.071 231.726C286.262 231.316 286.544 231.004 286.916 230.79C287.202 230.625 287.531 230.534 287.902 230.517C288.286 230.503 288.668 230.606 289.049 230.825C289.443 231.049 289.792 231.425 290.096 231.953C290.371 232.43 290.555 232.86 290.649 233.245C290.743 233.629 290.767 234.031 290.72 234.45L289.257 234.375C289.293 234.135 289.294 233.886 289.261 233.629C289.241 233.374 289.186 233.158 289.095 232.98C288.969 232.741 288.821 232.584 288.65 232.509C288.489 232.429 288.347 232.423 288.226 232.493C288.056 232.579 287.961 232.715 287.941 232.9C287.925 233.093 287.952 233.309 288.019 233.547C288.087 233.785 288.144 234.024 288.189 234.263C288.285 234.75 288.273 235.19 288.152 235.582C288.041 235.969 287.773 236.285 287.348 236.53C287.001 236.729 286.62 236.828 286.203 236.826C285.8 236.827 285.398 236.7 284.998 236.446C284.603 236.201 284.245 235.801 283.926 235.246Z" fill="#09090B"/>
</g>

<g class="sun_line sun_line_3">
<line x1="123.411" y1="253.673" x2="228.864" y2="316.994" stroke="#FFFEFE" stroke-width="25" stroke-linecap="round" stroke-linejoin="round"/>
<path d="M156.165 266.82L162.621 270.696L161.54 272.497L156.949 269.74L155.737 271.759L159.801 274.199L158.72 276L154.656 273.56L153.428 275.605L158.199 278.469L157.118 280.27L150.483 276.285L156.165 266.82ZM163.759 276.611L163.347 277.588C163.756 277.355 164.204 277.24 164.693 277.241C165.182 277.243 165.683 277.399 166.198 277.707C166.729 278.027 167.075 278.45 167.237 278.979C167.411 279.503 167.354 280.017 167.064 280.519L164.539 284.725L162.739 283.644L164.862 280.107C165.003 279.853 165.052 279.615 165.011 279.392C164.984 279.166 164.824 278.965 164.533 278.79C164.113 278.538 163.66 278.534 163.175 278.779C162.703 279.021 162.287 279.442 161.927 280.042L160.552 282.331L158.752 281.25L162.126 275.63L163.759 276.611ZM167.595 290.409C167.09 290.105 166.697 289.788 166.417 289.457C166.147 289.131 165.943 288.81 165.805 288.494C165.668 288.179 165.552 287.887 165.456 287.62L167.252 287.018C167.341 287.317 167.465 287.625 167.624 287.942C167.787 288.273 168.083 288.567 168.512 288.824C168.94 289.082 169.38 289.194 169.831 289.162C170.286 289.143 170.639 288.924 170.891 288.504L171.37 287.706C171.048 287.874 170.656 287.954 170.194 287.945C169.738 287.928 169.236 287.755 168.687 287.425C168.181 287.121 167.787 286.71 167.504 286.19C167.235 285.667 167.106 285.105 167.116 284.505C167.132 283.896 167.312 283.304 167.657 282.73C168.012 282.138 168.463 281.698 169.01 281.408C169.563 281.11 170.137 280.959 170.734 280.956C171.331 280.953 171.873 281.098 172.362 281.391C172.851 281.684 173.227 282.01 173.491 282.366C173.769 282.72 173.934 283.046 173.987 283.347L174.391 282.994L176.05 283.99L172.676 289.61C172.347 290.159 171.902 290.551 171.341 290.785C170.775 291.029 170.163 291.116 169.504 291.047C168.849 290.992 168.213 290.779 167.595 290.409ZM169.501 283.767C169.233 284.213 169.157 284.68 169.272 285.169C169.391 285.649 169.67 286.021 170.107 286.283C170.827 286.716 171.516 286.744 172.173 286.369L172.999 284.993C173.044 284.646 172.978 284.309 172.801 283.982C172.625 283.654 172.352 283.38 171.984 283.158C171.546 282.896 171.09 282.82 170.615 282.932C170.145 283.034 169.774 283.313 169.501 283.767ZM180.618 280.574L182.418 281.655L176.326 291.802L174.526 290.721L180.618 280.574ZM181.554 287.295L183.355 288.376L179.981 293.996L178.18 292.915L181.554 287.295ZM182.713 285.278C182.872 285.013 183.106 284.856 183.415 284.808C183.732 284.765 184.011 284.816 184.251 284.96C184.491 285.104 184.658 285.321 184.753 285.611C184.855 285.906 184.827 286.186 184.667 286.452C184.508 286.718 184.274 286.875 183.965 286.923C183.67 286.967 183.402 286.917 183.162 286.773C182.922 286.629 182.744 286.411 182.627 286.12C182.525 285.825 182.553 285.544 182.713 285.278ZM183.592 296.321C183.129 296.043 182.745 295.702 182.439 295.297C182.143 294.897 181.945 294.469 181.846 294.013L183.186 293.471C183.311 293.884 183.456 294.216 183.62 294.466C183.799 294.713 183.982 294.894 184.171 295.007C184.394 295.141 184.599 295.217 184.786 295.236C184.972 295.255 185.112 295.187 185.205 295.033C185.292 294.887 185.302 294.735 185.233 294.577C185.173 294.425 185.069 294.269 184.92 294.109C184.776 293.941 184.619 293.765 184.449 293.582C184.032 293.11 183.801 292.65 183.755 292.203C183.722 291.752 183.817 291.342 184.038 290.973C184.208 290.69 184.451 290.451 184.766 290.256C185.096 290.057 185.48 289.961 185.919 289.968C186.372 289.971 186.86 290.13 187.383 290.444C187.854 290.727 188.224 291.014 188.494 291.304C188.763 291.594 188.979 291.933 189.142 292.322L187.827 292.968C187.741 292.741 187.621 292.524 187.467 292.314C187.326 292.102 187.173 291.939 187.007 291.828C186.78 291.68 186.574 291.615 186.389 291.632C186.209 291.641 186.083 291.705 186.011 291.825C185.905 291.983 185.887 292.147 185.959 292.319C186.04 292.496 186.168 292.672 186.343 292.846C186.517 293.021 186.683 293.202 186.839 293.389C187.159 293.769 187.363 294.159 187.448 294.56C187.539 294.953 187.458 295.359 187.206 295.779C187 296.122 186.715 296.394 186.349 296.595C185.998 296.792 185.585 296.876 185.112 296.849C184.647 296.826 184.14 296.651 183.592 296.321ZM187.587 298.562L193.679 288.416L195.441 289.473L192.19 294.888C192.593 294.663 193.039 294.552 193.528 294.554C194.017 294.555 194.518 294.711 195.033 295.02C195.564 295.339 195.91 295.762 196.072 296.291C196.246 296.816 196.189 297.329 195.899 297.832L193.374 302.037L191.574 300.956L193.697 297.419C193.838 297.166 193.887 296.927 193.846 296.704C193.819 296.478 193.659 296.277 193.368 296.102C192.948 295.85 192.495 295.846 192.01 296.091C191.538 296.333 191.122 296.754 190.762 297.354L189.387 299.643L187.587 298.562Z" fill="#09090B"/>
</g>

<g class="sun_line sun_line_4">
<line x1="86.5" y1="394.5" x2="209.503" y2="394.5" stroke="#FFFEFE" stroke-width="25" stroke-linecap="round" stroke-linejoin="round"/>
<path d="M119.72 387.96H126.62V390.06H121.895V392.565H125.99V394.665H121.895V399H119.72V387.96ZM130.259 392.445L130.424 393.945C130.614 393.565 130.874 393.24 131.204 392.97C131.534 392.69 131.859 392.48 132.179 392.34C132.499 392.19 132.744 392.115 132.914 392.115L132.809 394.215C132.319 394.155 131.899 394.235 131.549 394.455C131.199 394.675 130.929 394.965 130.739 395.325C130.549 395.685 130.454 396.055 130.454 396.435V399H128.369V392.445H130.259ZM137.062 399.18C136.452 399.18 135.897 399.06 135.397 398.82C134.907 398.57 134.517 398.19 134.227 397.68C133.937 397.17 133.792 396.52 133.792 395.73C133.792 394.99 133.942 394.35 134.242 393.81C134.542 393.27 134.937 392.855 135.427 392.565C135.917 392.265 136.437 392.115 136.987 392.115C137.637 392.115 138.127 392.22 138.457 392.43C138.797 392.64 139.067 392.87 139.267 393.12L139.402 392.445H141.352V399H139.252V398.19C139.152 398.29 139.002 398.42 138.802 398.58C138.612 398.74 138.372 398.88 138.082 399C137.792 399.12 137.452 399.18 137.062 399.18ZM137.662 397.47C138.392 397.47 138.922 397.14 139.252 396.48V394.875C139.132 394.555 138.922 394.3 138.622 394.11C138.332 393.92 137.987 393.825 137.587 393.825C137.137 393.825 136.747 393.995 136.417 394.335C136.087 394.665 135.922 395.095 135.922 395.625C135.922 395.975 136.002 396.29 136.162 396.57C136.322 396.85 136.532 397.07 136.792 397.23C137.062 397.39 137.352 397.47 137.662 397.47ZM145.421 392.445L145.571 393.495C145.801 393.085 146.126 392.755 146.546 392.505C146.966 392.255 147.476 392.13 148.076 392.13C148.696 392.13 149.211 392.315 149.621 392.685C150.041 393.045 150.256 393.515 150.266 394.095V399H148.166V394.875C148.156 394.585 148.076 394.355 147.926 394.185C147.786 394.005 147.546 393.915 147.206 393.915C146.716 393.915 146.326 394.145 146.036 394.605C145.756 395.055 145.616 395.63 145.616 396.33V399H143.516V392.445H145.421ZM157.987 398.415C157.697 398.645 157.332 398.83 156.892 398.97C156.462 399.11 156.037 399.18 155.617 399.18C154.497 399.18 153.597 398.875 152.917 398.265C152.247 397.655 151.912 396.805 151.912 395.715C151.912 394.985 152.077 394.365 152.407 393.855C152.737 393.335 153.167 392.94 153.697 392.67C154.237 392.4 154.802 392.265 155.392 392.265C155.982 392.265 156.492 392.345 156.922 392.505C157.362 392.665 157.737 392.875 158.047 393.135L157.027 394.485C156.887 394.375 156.692 394.265 156.442 394.155C156.202 394.035 155.917 393.975 155.587 393.975C155.157 393.975 154.787 394.14 154.477 394.47C154.167 394.79 154.012 395.205 154.012 395.715C154.012 396.205 154.172 396.62 154.492 396.96C154.822 397.3 155.257 397.47 155.797 397.47C156.257 397.47 156.637 397.345 156.937 397.095L157.987 398.415ZM153.697 401.04C153.797 401.16 153.922 401.255 154.072 401.325C154.232 401.405 154.407 401.445 154.597 401.445C154.767 401.445 154.942 401.4 155.122 401.31C155.312 401.22 155.407 401.085 155.407 400.905C155.407 400.795 155.357 400.685 155.257 400.575C155.157 400.465 154.942 400.41 154.612 400.41C154.452 400.41 154.297 400.425 154.147 400.455C153.997 400.495 153.852 400.535 153.712 400.575L153.427 399.585L154.462 398.82H156.067L155.452 399.51C155.932 399.54 156.332 399.67 156.652 399.9C156.982 400.13 157.147 400.455 157.147 400.875C157.147 401.255 157.032 401.565 156.802 401.805C156.582 402.055 156.292 402.24 155.932 402.36C155.582 402.48 155.207 402.54 154.807 402.54C154.367 402.54 154.007 402.47 153.727 402.33C153.447 402.2 153.222 402.045 153.052 401.865L153.697 401.04ZM162.36 399.18C161.75 399.18 161.195 399.06 160.695 398.82C160.205 398.57 159.815 398.19 159.525 397.68C159.235 397.17 159.09 396.52 159.09 395.73C159.09 394.99 159.24 394.35 159.54 393.81C159.84 393.27 160.235 392.855 160.725 392.565C161.215 392.265 161.735 392.115 162.285 392.115C162.935 392.115 163.425 392.22 163.755 392.43C164.095 392.64 164.365 392.87 164.565 393.12L164.7 392.445H166.65V399H164.55V398.19C164.45 398.29 164.3 398.42 164.1 398.58C163.91 398.74 163.67 398.88 163.38 399C163.09 399.12 162.75 399.18 162.36 399.18ZM162.96 397.47C163.69 397.47 164.22 397.14 164.55 396.48V394.875C164.43 394.555 164.22 394.3 163.92 394.11C163.63 393.92 163.285 393.825 162.885 393.825C162.435 393.825 162.045 393.995 161.715 394.335C161.385 394.665 161.22 395.095 161.22 395.625C161.22 395.975 161.3 396.29 161.46 396.57C161.62 396.85 161.83 397.07 162.09 397.23C162.36 397.39 162.65 397.47 162.96 397.47ZM168.813 392.445H170.913V399H168.813V392.445ZM168.768 390.12C168.768 389.81 168.888 389.555 169.128 389.355C169.378 389.155 169.643 389.055 169.923 389.055C170.203 389.055 170.458 389.155 170.688 389.355C170.928 389.555 171.048 389.81 171.048 390.12C171.048 390.43 170.928 390.685 170.688 390.885C170.458 391.075 170.203 391.17 169.923 391.17C169.643 391.17 169.378 391.075 169.128 390.885C168.888 390.685 168.768 390.43 168.768 390.12ZM175.206 399.135C174.666 399.135 174.161 399.04 173.691 398.85C173.231 398.66 172.841 398.395 172.521 398.055L173.391 396.9C173.711 397.19 174.006 397.4 174.276 397.53C174.556 397.65 174.806 397.71 175.026 397.71C175.286 397.71 175.501 397.67 175.671 397.59C175.841 397.51 175.926 397.38 175.926 397.2C175.926 397.03 175.856 396.895 175.716 396.795C175.586 396.695 175.416 396.615 175.206 396.555C174.996 396.485 174.771 396.415 174.531 396.345C173.931 396.155 173.496 395.88 173.226 395.52C172.966 395.15 172.836 394.75 172.836 394.32C172.836 393.99 172.921 393.66 173.091 393.33C173.271 392.99 173.551 392.71 173.931 392.49C174.321 392.26 174.821 392.145 175.431 392.145C175.981 392.145 176.446 392.2 176.826 392.31C177.206 392.42 177.566 392.6 177.906 392.85L177.111 394.08C176.921 393.93 176.706 393.805 176.466 393.705C176.236 393.595 176.021 393.535 175.821 393.525C175.551 393.515 175.341 393.565 175.191 393.675C175.041 393.775 174.966 393.895 174.966 394.035C174.956 394.225 175.026 394.375 175.176 394.485C175.336 394.595 175.536 394.68 175.776 394.74C176.016 394.8 176.251 394.87 176.481 394.95C176.951 395.11 177.326 395.34 177.606 395.64C177.886 395.93 178.026 396.32 178.026 396.81C178.026 397.21 177.921 397.59 177.711 397.95C177.511 398.3 177.201 398.585 176.781 398.805C176.371 399.025 175.846 399.135 175.206 399.135Z" fill="#09090B"/>
</g>

<line x1="163.972" y1="342.113" x2="217.399" y2="355.171" stroke="#FFFEFE" stroke-width="15" stroke-linecap="round" stroke-linejoin="round"/>
<line x1="326.339" y1="181.746" x2="338.855" y2="235.303" stroke="#FFFEFE" stroke-width="15" stroke-linecap="round" stroke-linejoin="round"/>
<line x1="206.269" y1="226.925" x2="259.579" y2="279.68" stroke="#FFFEFE" stroke-width="15" stroke-linecap="round" stroke-linejoin="round"/>

<style>

.sun_line{
    cursor: pointer;
    transition: .5s all ease-in-out;
}

.sun_line_1:hover{
    -webkit-transform: translateY(-15px);
    -moz-transform: translateY(-15px);
    -ms-transform: translateY(-15px);
    -o-transform: translateY(-15px);
    transform: translateY(-15px);
}

.sun_line_2:hover{
    -webkit-transform: translateX(-8px) translateY(-14px);
    -moz-transform: translateX(-8px) translateY(-14px);
    -ms-transform: translateX(-8px) translateY(-14px);
    -o-transform: translateX(-8px) translateY(-14px);
    transform: translateX(-8px) translateY(-14px);
}

.sun_line_3:hover{
    -webkit-transform: translateX(-12px) translateY(-10px);
    -moz-transform: translateX(-12px) translateY(-10px);
    -ms-transform: translateX(-12px) translateY(-10px);
    -o-transform: translateX(-12px) translateY(-10px);
    transform: translateX(-12px) translateY(-10px);
}

.sun_line_4:hover{
    -webkit-transform: translateX(-15px);
    -moz-transform: translateX(-15px);
    -ms-transform: translateX(-15px);
    -o-transform: translateX(-15px);
    transform: translateX(-15px);
}

</style>

</svg>
