<svg width="347" height="368" viewBox="0 0 347 368" fill="none" xmlns="http://www.w3.org/2000/svg">
<circle cx="308.5" cy="341.5" r="132.5" stroke="#FFFEFE" stroke-width="20"/>

<g class="sun_line sun_line_1">
<line x1="307.5" y1="168.5" x2="307.5" y2="12.5" stroke="#FFFEFE" stroke-width="25" stroke-linecap="round"/>
<path d="M314.04 18.5913C314.04 19.9613 313.7 21.0113 313.02 21.7413C312.35 22.4713 311.45 22.8363 310.32 22.8363C309.87 22.8363 309.415 22.7663 308.955 22.6263C308.505 22.4963 308.095 22.2813 307.725 21.9813C307.355 21.6913 307.055 21.2963 306.825 20.7963C306.605 20.3063 306.495 19.7013 306.495 18.9813V17.4213H303V15.2463L314.04 15.2463V18.5913ZM308.61 18.9663C308.61 19.4063 308.705 19.7463 308.895 19.9863C309.095 20.2363 309.325 20.4113 309.585 20.5113C309.845 20.6113 310.07 20.6613 310.26 20.6613C310.37 20.6613 310.515 20.6413 310.695 20.6013C310.885 20.5713 311.075 20.5013 311.265 20.3913C311.455 20.2813 311.615 20.1113 311.745 19.8813C311.875 19.6613 311.94 19.3613 311.94 18.9813V17.4213H308.61V18.9663ZM306.36 23.9274C307.03 23.9274 307.63 24.0824 308.16 24.3924C308.69 24.7124 309.105 25.1574 309.405 25.7274C309.715 26.2974 309.87 26.9524 309.87 27.6924C309.87 28.4424 309.715 29.0924 309.405 29.6424C309.105 30.1924 308.69 30.6124 308.16 30.9024C307.63 31.2024 307.03 31.3524 306.36 31.3524C305.69 31.3524 305.085 31.2024 304.545 30.9024C304.015 30.6124 303.595 30.1924 303.285 29.6424C302.975 29.0924 302.82 28.4324 302.82 27.6624C302.82 26.9424 302.96 26.2974 303.24 25.7274C303.52 25.1674 303.925 24.7274 304.455 24.4074C304.985 24.0874 305.62 23.9274 306.36 23.9274ZM306.345 26.0424C305.825 26.0424 305.39 26.1924 305.04 26.4924C304.7 26.7924 304.53 27.1724 304.53 27.6324C304.53 28.1224 304.7 28.5124 305.04 28.8024C305.39 29.0924 305.825 29.2374 306.345 29.2374C306.865 29.2374 307.295 29.0924 307.635 28.8024C307.985 28.5124 308.16 28.1224 308.16 27.6324C308.16 27.1724 307.985 26.7924 307.635 26.4924C307.295 26.1924 306.865 26.0424 306.345 26.0424ZM314.835 33.0068V35.1068H303V33.0068H314.835ZM309.555 37.2695V39.3695H303V37.2695H309.555ZM311.88 37.2245C312.19 37.2245 312.445 37.3445 312.645 37.5845C312.845 37.8345 312.945 38.0995 312.945 38.3795C312.945 38.6595 312.845 38.9145 312.645 39.1445C312.445 39.3845 312.19 39.5045 311.88 39.5045C311.57 39.5045 311.315 39.3845 311.115 39.1445C310.925 38.9145 310.83 38.6595 310.83 38.3795C310.83 38.0995 310.925 37.8345 311.115 37.5845C311.315 37.3445 311.57 37.2245 311.88 37.2245ZM312.435 42.1471V44.2471H309.585V45.8371H307.95V44.2471H303V42.1471H307.95V41.1271H309.585V42.1471H312.435ZM309.555 47.4355V49.5355H303V47.4355H309.555ZM311.88 47.3905C312.19 47.3905 312.445 47.5105 312.645 47.7505C312.845 48.0005 312.945 48.2655 312.945 48.5455C312.945 48.8255 312.845 49.0805 312.645 49.3105C312.445 49.5505 312.19 49.6705 311.88 49.6705C311.57 49.6705 311.315 49.5505 311.115 49.3105C310.925 49.0805 310.83 48.8255 310.83 48.5455C310.83 48.2655 310.925 48.0005 311.115 47.7505C311.315 47.5105 311.57 47.3905 311.88 47.3905ZM302.82 54.3082C302.82 53.7482 302.955 53.2282 303.225 52.7482C303.495 52.2782 303.885 51.8982 304.395 51.6082C304.915 51.3282 305.545 51.1882 306.285 51.1882C307.035 51.1882 307.675 51.3482 308.205 51.6682C308.745 51.9882 309.16 52.4032 309.45 52.9132C309.74 53.4332 309.885 53.9932 309.885 54.5932C309.885 55.1032 309.81 55.5332 309.66 55.8832C309.51 56.2332 309.305 56.5382 309.045 56.7982H309.705V58.8982H299.85V56.8132H303.57C303.36 56.5532 303.18 56.2032 303.03 55.7632C302.89 55.3332 302.82 54.8482 302.82 54.3082ZM304.47 55.0582C304.47 55.4782 304.565 55.8432 304.755 56.1532C304.945 56.4632 305.2 56.6782 305.52 56.7982H307.125C307.455 56.6182 307.7 56.3882 307.86 56.1082C308.03 55.8282 308.115 55.4782 308.115 55.0582C308.115 54.7482 308.035 54.4582 307.875 54.1882C307.715 53.9282 307.495 53.7182 307.215 53.5582C306.935 53.3982 306.62 53.3182 306.27 53.3182C305.92 53.3182 305.61 53.3982 305.34 53.5582C305.07 53.7182 304.855 53.9282 304.695 54.1882C304.545 54.4582 304.47 54.7482 304.47 55.0582ZM302.685 63.1735C302.685 62.5835 302.865 62.0885 303.225 61.6885C303.595 61.2885 304.07 61.0785 304.65 61.0585H309.555V63.1585H305.43C305.14 63.1785 304.905 63.2535 304.725 63.3835C304.555 63.5135 304.47 63.7335 304.47 64.0435C304.47 64.5135 304.695 64.8835 305.145 65.1535C305.605 65.4235 306.185 65.5585 306.885 65.5585H309.555V67.6585H303V65.7535L304.05 65.6035C303.64 65.3835 303.31 65.0685 303.06 64.6585C302.81 64.2485 302.685 63.7535 302.685 63.1735ZM302.82 73.0433C302.82 72.2433 302.97 71.5633 303.27 71.0033C303.57 70.4533 303.985 70.0333 304.515 69.7433C305.045 69.4533 305.655 69.3083 306.345 69.3083C307.005 69.3083 307.6 69.4783 308.13 69.8183C308.66 70.1583 309.08 70.6133 309.39 71.1833C309.71 71.7533 309.87 72.3883 309.87 73.0883C309.87 74.0283 309.595 74.7983 309.045 75.3983C308.505 76.0083 307.72 76.4033 306.69 76.5833L305.16 71.7833C304.79 72.1033 304.605 72.5383 304.605 73.0883C304.605 73.3183 304.645 73.5383 304.725 73.7483C304.805 73.9683 304.91 74.1833 305.04 74.3933L303.48 75.3233C303.28 74.9733 303.12 74.5933 303 74.1833C302.88 73.7833 302.82 73.4033 302.82 73.0433ZM306.465 71.3783C306.415 71.3783 306.37 71.3783 306.33 71.3783L307.305 74.2583C307.555 74.1683 307.77 74.0233 307.95 73.8233C308.14 73.6233 308.235 73.3233 308.235 72.9233C308.235 72.4533 308.075 72.0783 307.755 71.7983C307.435 71.5183 307.005 71.3783 306.465 71.3783ZM302.82 85.6572C302.82 85.0472 302.96 84.5022 303.24 84.0222C303.53 83.5422 303.945 83.1622 304.485 82.8822C305.025 82.6122 305.665 82.4772 306.405 82.4772C307.145 82.4772 307.775 82.6272 308.295 82.9272C308.815 83.2272 309.21 83.6372 309.48 84.1572C309.75 84.6772 309.885 85.2672 309.885 85.9272C309.885 86.3472 309.82 86.7472 309.69 87.1272C309.56 87.5172 309.36 87.8422 309.09 88.1022H314.835V90.1872H303V88.0872H303.69C303.44 87.7672 303.23 87.4072 303.06 87.0072C302.9 86.6072 302.82 86.1572 302.82 85.6572ZM304.59 86.3472C304.59 86.7672 304.67 87.1172 304.83 87.3972C305 87.6772 305.25 87.9072 305.58 88.0872H307.185C307.505 87.9672 307.76 87.7522 307.95 87.4422C308.14 87.1322 308.235 86.7672 308.235 86.3472C308.235 86.0372 308.155 85.7472 307.995 85.4772C307.845 85.2172 307.635 85.0072 307.365 84.8472C307.095 84.6872 306.785 84.6072 306.435 84.6072C306.085 84.6072 305.77 84.6872 305.49 84.8472C305.21 85.0072 304.99 85.2172 304.83 85.4772C304.67 85.7472 304.59 86.0372 304.59 86.3472ZM302.82 95.5726C302.82 94.7726 302.97 94.0926 303.27 93.5326C303.57 92.9826 303.985 92.5626 304.515 92.2726C305.045 91.9826 305.655 91.8376 306.345 91.8376C307.005 91.8376 307.6 92.0076 308.13 92.3476C308.66 92.6876 309.08 93.1426 309.39 93.7126C309.71 94.2826 309.87 94.9176 309.87 95.6176C309.87 96.5576 309.595 97.3276 309.045 97.9276C308.505 98.5376 307.72 98.9326 306.69 99.1126L305.16 94.3126C304.79 94.6326 304.605 95.0676 304.605 95.6176C304.605 95.8476 304.645 96.0676 304.725 96.2776C304.805 96.4976 304.91 96.7126 305.04 96.9226L303.48 97.8526C303.28 97.5026 303.12 97.1226 303 96.7126C302.88 96.3126 302.82 95.9326 302.82 95.5726ZM306.465 93.9076C306.415 93.9076 306.37 93.9076 306.33 93.9076L307.305 96.7876C307.555 96.6976 307.77 96.5526 307.95 96.3526C308.14 96.1526 308.235 95.8526 308.235 95.4526C308.235 94.9826 308.075 94.6076 307.755 94.3276C307.435 94.0476 307.005 93.9076 306.465 93.9076ZM302.865 102.769C302.865 102.229 302.96 101.724 303.15 101.254C303.34 100.794 303.605 100.404 303.945 100.084L305.1 100.954C304.81 101.274 304.6 101.569 304.47 101.839C304.35 102.119 304.29 102.369 304.29 102.589C304.29 102.849 304.33 103.064 304.41 103.234C304.49 103.404 304.62 103.489 304.8 103.489C304.97 103.489 305.105 103.419 305.205 103.279C305.305 103.149 305.385 102.979 305.445 102.769C305.515 102.559 305.585 102.334 305.655 102.094C305.845 101.494 306.12 101.059 306.48 100.789C306.85 100.529 307.25 100.399 307.68 100.399C308.01 100.399 308.34 100.484 308.67 100.654C309.01 100.834 309.29 101.114 309.51 101.494C309.74 101.884 309.855 102.384 309.855 102.994C309.855 103.544 309.8 104.009 309.69 104.389C309.58 104.769 309.4 105.129 309.15 105.469L307.92 104.674C308.07 104.484 308.195 104.269 308.295 104.029C308.405 103.799 308.465 103.584 308.475 103.384C308.485 103.114 308.435 102.904 308.325 102.754C308.225 102.604 308.105 102.529 307.965 102.529C307.775 102.519 307.625 102.589 307.515 102.739C307.405 102.899 307.32 103.099 307.26 103.339C307.2 103.579 307.13 103.814 307.05 104.044C306.89 104.514 306.66 104.889 306.36 105.169C306.07 105.449 305.68 105.589 305.19 105.589C304.79 105.589 304.41 105.484 304.05 105.274C303.7 105.074 303.415 104.764 303.195 104.344C302.975 103.934 302.865 103.409 302.865 102.769ZM302.82 114.896C302.82 114.286 302.96 113.741 303.24 113.261C303.53 112.781 303.945 112.401 304.485 112.121C305.025 111.851 305.665 111.716 306.405 111.716C307.145 111.716 307.775 111.866 308.295 112.166C308.815 112.466 309.21 112.876 309.48 113.396C309.75 113.916 309.885 114.506 309.885 115.166C309.885 115.586 309.82 115.986 309.69 116.366C309.56 116.756 309.36 117.081 309.09 117.341H314.835V119.426H303V117.326H303.69C303.44 117.006 303.23 116.646 303.06 116.246C302.9 115.846 302.82 115.396 302.82 114.896ZM304.59 115.586C304.59 116.006 304.67 116.356 304.83 116.636C305 116.916 305.25 117.146 305.58 117.326H307.185C307.505 117.206 307.76 116.991 307.95 116.681C308.14 116.371 308.235 116.006 308.235 115.586C308.235 115.276 308.155 114.986 307.995 114.716C307.845 114.456 307.635 114.246 307.365 114.086C307.095 113.926 306.785 113.846 306.435 113.846C306.085 113.846 305.77 113.926 305.49 114.086C305.21 114.246 304.99 114.456 304.83 114.716C304.67 114.986 304.59 115.276 304.59 115.586ZM306.36 121.076C307.03 121.076 307.63 121.231 308.16 121.541C308.69 121.861 309.105 122.306 309.405 122.876C309.715 123.446 309.87 124.101 309.87 124.841C309.87 125.591 309.715 126.241 309.405 126.791C309.105 127.341 308.69 127.761 308.16 128.051C307.63 128.351 307.03 128.501 306.36 128.501C305.69 128.501 305.085 128.351 304.545 128.051C304.015 127.761 303.595 127.341 303.285 126.791C302.975 126.241 302.82 125.581 302.82 124.811C302.82 124.091 302.96 123.446 303.24 122.876C303.52 122.316 303.925 121.876 304.455 121.556C304.985 121.236 305.62 121.076 306.36 121.076ZM306.345 123.191C305.825 123.191 305.39 123.341 305.04 123.641C304.7 123.941 304.53 124.321 304.53 124.781C304.53 125.271 304.7 125.661 305.04 125.951C305.39 126.241 305.825 126.386 306.345 126.386C306.865 126.386 307.295 126.241 307.635 125.951C307.985 125.661 308.16 125.271 308.16 124.781C308.16 124.321 307.985 123.941 307.635 123.641C307.295 123.341 306.865 123.191 306.345 123.191ZM309.555 132.06L308.505 132.21C308.915 132.44 309.245 132.765 309.495 133.185C309.745 133.605 309.87 134.115 309.87 134.715C309.87 135.335 309.685 135.85 309.315 136.26C308.955 136.68 308.485 136.895 307.905 136.905H303V134.805H307.125C307.415 134.795 307.645 134.715 307.815 134.565C307.995 134.425 308.085 134.185 308.085 133.845C308.085 133.355 307.855 132.965 307.395 132.675C306.945 132.395 306.37 132.255 305.67 132.255H303V130.155H309.555V132.06ZM309.555 140.966L308.505 141.116C308.915 141.346 309.245 141.671 309.495 142.091C309.745 142.511 309.87 143.021 309.87 143.621C309.87 144.241 309.685 144.756 309.315 145.166C308.955 145.586 308.485 145.801 307.905 145.811H303V143.711H307.125C307.415 143.701 307.645 143.621 307.815 143.471C307.995 143.331 308.085 143.091 308.085 142.751C308.085 142.261 307.855 141.871 307.395 141.581C306.945 141.301 306.37 141.161 305.67 141.161H303V139.061H309.555V140.966ZM302.82 151.193C302.82 150.393 302.97 149.713 303.27 149.153C303.57 148.603 303.985 148.183 304.515 147.893C305.045 147.603 305.655 147.458 306.345 147.458C307.005 147.458 307.6 147.628 308.13 147.968C308.66 148.308 309.08 148.763 309.39 149.333C309.71 149.903 309.87 150.538 309.87 151.238C309.87 152.178 309.595 152.948 309.045 153.548C308.505 154.158 307.72 154.553 306.69 154.733L305.16 149.933C304.79 150.253 304.605 150.688 304.605 151.238C304.605 151.468 304.645 151.688 304.725 151.898C304.805 152.118 304.91 152.333 305.04 152.543L303.48 153.473C303.28 153.123 303.12 152.743 303 152.333C302.88 151.933 302.82 151.553 302.82 151.193ZM306.465 149.528C306.415 149.528 306.37 149.528 306.33 149.528L307.305 152.408C307.555 152.318 307.77 152.173 307.95 151.973C308.14 151.773 308.235 151.473 308.235 151.073C308.235 150.603 308.075 150.228 307.755 149.948C307.435 149.668 307.005 149.528 306.465 149.528ZM312.675 153.443L310.65 151.223V149.948L312.675 151.118V153.443ZM302.82 159.484C302.82 158.684 302.97 158.004 303.27 157.444C303.57 156.894 303.985 156.474 304.515 156.184C305.045 155.894 305.655 155.749 306.345 155.749C307.005 155.749 307.6 155.919 308.13 156.259C308.66 156.599 309.08 157.054 309.39 157.624C309.71 158.194 309.87 158.829 309.87 159.529C309.87 160.469 309.595 161.239 309.045 161.839C308.505 162.449 307.72 162.844 306.69 163.024L305.16 158.224C304.79 158.544 304.605 158.979 304.605 159.529C304.605 159.759 304.645 159.979 304.725 160.189C304.805 160.409 304.91 160.624 305.04 160.834L303.48 161.764C303.28 161.414 303.12 161.034 303 160.624C302.88 160.224 302.82 159.844 302.82 159.484ZM306.465 157.819C306.415 157.819 306.37 157.819 306.33 157.819L307.305 160.699C307.555 160.609 307.77 160.464 307.95 160.264C308.14 160.064 308.235 159.764 308.235 159.364C308.235 158.894 308.075 158.519 307.755 158.239C307.435 157.959 307.005 157.819 306.465 157.819ZM302.865 166.68C302.865 166.14 302.96 165.635 303.15 165.165C303.34 164.705 303.605 164.315 303.945 163.995L305.1 164.865C304.81 165.185 304.6 165.48 304.47 165.75C304.35 166.03 304.29 166.28 304.29 166.5C304.29 166.76 304.33 166.975 304.41 167.145C304.49 167.315 304.62 167.4 304.8 167.4C304.97 167.4 305.105 167.33 305.205 167.19C305.305 167.06 305.385 166.89 305.445 166.68C305.515 166.47 305.585 166.245 305.655 166.005C305.845 165.405 306.12 164.97 306.48 164.7C306.85 164.44 307.25 164.31 307.68 164.31C308.01 164.31 308.34 164.395 308.67 164.565C309.01 164.745 309.29 165.025 309.51 165.405C309.74 165.795 309.855 166.295 309.855 166.905C309.855 167.455 309.8 167.92 309.69 168.3C309.58 168.68 309.4 169.04 309.15 169.38L307.92 168.585C308.07 168.395 308.195 168.18 308.295 167.94C308.405 167.71 308.465 167.495 308.475 167.295C308.485 167.025 308.435 166.815 308.325 166.665C308.225 166.515 308.105 166.44 307.965 166.44C307.775 166.43 307.625 166.5 307.515 166.65C307.405 166.81 307.32 167.01 307.26 167.25C307.2 167.49 307.13 167.725 307.05 167.955C306.89 168.425 306.66 168.8 306.36 169.08C306.07 169.36 305.68 169.5 305.19 169.5C304.79 169.5 304.41 169.395 304.05 169.185C303.7 168.985 303.415 168.675 303.195 168.255C302.975 167.845 302.865 167.32 302.865 166.68Z" fill="#09090B"/>
</g>

<line x1="49.4111" y1="195.673" x2="154.864" y2="258.994" stroke="#FFFEFE" stroke-width="25" stroke-linecap="round" stroke-linejoin="round"/>
<line x1="161.415" y1="83.5507" x2="222.785" y2="190.151" stroke="#FFFEFE" stroke-width="25" stroke-linecap="round" stroke-linejoin="round"/>
<line x1="12.5" y1="336.5" x2="135.503" y2="336.5" stroke="#FFFEFE" stroke-width="25" stroke-linecap="round" stroke-linejoin="round"/>
<line x1="89.9715" y1="284.113" x2="143.399" y2="297.171" stroke="#FFFEFE" stroke-width="15" stroke-linecap="round" stroke-linejoin="round"/>
<line x1="252.339" y1="123.746" x2="264.855" y2="177.303" stroke="#FFFEFE" stroke-width="15" stroke-linecap="round" stroke-linejoin="round"/>
<line x1="132.269" y1="168.925" x2="185.579" y2="221.68" stroke="#FFFEFE" stroke-width="15" stroke-linecap="round" stroke-linejoin="round"/>
<path d="M45.7199 329.96H52.6199V332.06H47.8949V334.565H51.9899V336.665H47.8949V341H45.7199V329.96ZM56.2591 334.445L56.4241 335.945C56.6141 335.565 56.8741 335.24 57.2041 334.97C57.5341 334.69 57.8591 334.48 58.1791 334.34C58.4991 334.19 58.7441 334.115 58.9141 334.115L58.8091 336.215C58.3191 336.155 57.8991 336.235 57.5491 336.455C57.1991 336.675 56.9291 336.965 56.7391 337.325C56.5491 337.685 56.4541 338.055 56.4541 338.435V341H54.3691V334.445H56.2591ZM63.0617 341.18C62.4517 341.18 61.8967 341.06 61.3967 340.82C60.9067 340.57 60.5167 340.19 60.2267 339.68C59.9367 339.17 59.7917 338.52 59.7917 337.73C59.7917 336.99 59.9417 336.35 60.2417 335.81C60.5417 335.27 60.9367 334.855 61.4267 334.565C61.9167 334.265 62.4367 334.115 62.9867 334.115C63.6367 334.115 64.1267 334.22 64.4567 334.43C64.7967 334.64 65.0667 334.87 65.2667 335.12L65.4017 334.445H67.3517V341H65.2517V340.19C65.1517 340.29 65.0017 340.42 64.8017 340.58C64.6117 340.74 64.3717 340.88 64.0817 341C63.7917 341.12 63.4517 341.18 63.0617 341.18ZM63.6617 339.47C64.3917 339.47 64.9217 339.14 65.2517 338.48V336.875C65.1317 336.555 64.9217 336.3 64.6217 336.11C64.3317 335.92 63.9867 335.825 63.5867 335.825C63.1367 335.825 62.7467 335.995 62.4167 336.335C62.0867 336.665 61.9217 337.095 61.9217 337.625C61.9217 337.975 62.0017 338.29 62.1617 338.57C62.3217 338.85 62.5317 339.07 62.7917 339.23C63.0617 339.39 63.3517 339.47 63.6617 339.47ZM71.4205 334.445L71.5705 335.495C71.8005 335.085 72.1255 334.755 72.5455 334.505C72.9655 334.255 73.4755 334.13 74.0755 334.13C74.6955 334.13 75.2105 334.315 75.6205 334.685C76.0405 335.045 76.2555 335.515 76.2655 336.095V341H74.1655V336.875C74.1555 336.585 74.0755 336.355 73.9255 336.185C73.7855 336.005 73.5455 335.915 73.2055 335.915C72.7155 335.915 72.3255 336.145 72.0355 336.605C71.7555 337.055 71.6155 337.63 71.6155 338.33V341H69.5155V334.445H71.4205ZM83.9868 340.415C83.6968 340.645 83.3318 340.83 82.8918 340.97C82.4618 341.11 82.0368 341.18 81.6168 341.18C80.4968 341.18 79.5968 340.875 78.9168 340.265C78.2468 339.655 77.9118 338.805 77.9118 337.715C77.9118 336.985 78.0768 336.365 78.4068 335.855C78.7368 335.335 79.1668 334.94 79.6968 334.67C80.2368 334.4 80.8018 334.265 81.3918 334.265C81.9818 334.265 82.4918 334.345 82.9218 334.505C83.3618 334.665 83.7368 334.875 84.0468 335.135L83.0268 336.485C82.8868 336.375 82.6918 336.265 82.4418 336.155C82.2018 336.035 81.9168 335.975 81.5868 335.975C81.1568 335.975 80.7868 336.14 80.4768 336.47C80.1668 336.79 80.0118 337.205 80.0118 337.715C80.0118 338.205 80.1718 338.62 80.4918 338.96C80.8218 339.3 81.2568 339.47 81.7968 339.47C82.2568 339.47 82.6368 339.345 82.9368 339.095L83.9868 340.415ZM79.6968 343.04C79.7968 343.16 79.9218 343.255 80.0718 343.325C80.2318 343.405 80.4068 343.445 80.5968 343.445C80.7668 343.445 80.9418 343.4 81.1218 343.31C81.3118 343.22 81.4068 343.085 81.4068 342.905C81.4068 342.795 81.3568 342.685 81.2568 342.575C81.1568 342.465 80.9418 342.41 80.6118 342.41C80.4518 342.41 80.2968 342.425 80.1468 342.455C79.9968 342.495 79.8518 342.535 79.7118 342.575L79.4268 341.585L80.4618 340.82H82.0668L81.4518 341.51C81.9318 341.54 82.3318 341.67 82.6518 341.9C82.9818 342.13 83.1468 342.455 83.1468 342.875C83.1468 343.255 83.0318 343.565 82.8018 343.805C82.5818 344.055 82.2918 344.24 81.9318 344.36C81.5818 344.48 81.2068 344.54 80.8068 344.54C80.3668 344.54 80.0068 344.47 79.7268 344.33C79.4468 344.2 79.2218 344.045 79.0518 343.865L79.6968 343.04ZM88.3595 341.18C87.7495 341.18 87.1945 341.06 86.6945 340.82C86.2045 340.57 85.8145 340.19 85.5245 339.68C85.2345 339.17 85.0895 338.52 85.0895 337.73C85.0895 336.99 85.2395 336.35 85.5395 335.81C85.8395 335.27 86.2345 334.855 86.7245 334.565C87.2145 334.265 87.7345 334.115 88.2845 334.115C88.9345 334.115 89.4245 334.22 89.7545 334.43C90.0945 334.64 90.3645 334.87 90.5645 335.12L90.6995 334.445H92.6495V341H90.5495V340.19C90.4495 340.29 90.2995 340.42 90.0995 340.58C89.9095 340.74 89.6695 340.88 89.3795 341C89.0895 341.12 88.7495 341.18 88.3595 341.18ZM88.9595 339.47C89.6895 339.47 90.2195 339.14 90.5495 338.48V336.875C90.4295 336.555 90.2195 336.3 89.9195 336.11C89.6295 335.92 89.2845 335.825 88.8845 335.825C88.4345 335.825 88.0445 335.995 87.7145 336.335C87.3845 336.665 87.2195 337.095 87.2195 337.625C87.2195 337.975 87.2995 338.29 87.4595 338.57C87.6195 338.85 87.8295 339.07 88.0895 339.23C88.3595 339.39 88.6495 339.47 88.9595 339.47ZM94.8134 334.445H96.9134V341H94.8134V334.445ZM94.7684 332.12C94.7684 331.81 94.8884 331.555 95.1284 331.355C95.3784 331.155 95.6434 331.055 95.9234 331.055C96.2034 331.055 96.4584 331.155 96.6884 331.355C96.9284 331.555 97.0484 331.81 97.0484 332.12C97.0484 332.43 96.9284 332.685 96.6884 332.885C96.4584 333.075 96.2034 333.17 95.9234 333.17C95.6434 333.17 95.3784 333.075 95.1284 332.885C94.8884 332.685 94.7684 332.43 94.7684 332.12ZM101.206 341.135C100.666 341.135 100.161 341.04 99.6911 340.85C99.2311 340.66 98.8411 340.395 98.5211 340.055L99.3911 338.9C99.7111 339.19 100.006 339.4 100.276 339.53C100.556 339.65 100.806 339.71 101.026 339.71C101.286 339.71 101.501 339.67 101.671 339.59C101.841 339.51 101.926 339.38 101.926 339.2C101.926 339.03 101.856 338.895 101.716 338.795C101.586 338.695 101.416 338.615 101.206 338.555C100.996 338.485 100.771 338.415 100.531 338.345C99.9311 338.155 99.4961 337.88 99.2261 337.52C98.9661 337.15 98.8361 336.75 98.8361 336.32C98.8361 335.99 98.9211 335.66 99.0911 335.33C99.2711 334.99 99.5511 334.71 99.9311 334.49C100.321 334.26 100.821 334.145 101.431 334.145C101.981 334.145 102.446 334.2 102.826 334.31C103.206 334.42 103.566 334.6 103.906 334.85L103.111 336.08C102.921 335.93 102.706 335.805 102.466 335.705C102.236 335.595 102.021 335.535 101.821 335.525C101.551 335.515 101.341 335.565 101.191 335.675C101.041 335.775 100.966 335.895 100.966 336.035C100.956 336.225 101.026 336.375 101.176 336.485C101.336 336.595 101.536 336.68 101.776 336.74C102.016 336.8 102.251 336.87 102.481 336.95C102.951 337.11 103.326 337.34 103.606 337.64C103.886 337.93 104.026 338.32 104.026 338.81C104.026 339.21 103.921 339.59 103.711 339.95C103.511 340.3 103.201 340.585 102.781 340.805C102.371 341.025 101.846 341.135 101.206 341.135Z" fill="#09090B"/>
<path d="M176.827 97.3563L177.912 99.2413L168.344 104.75L167.259 102.865L176.827 97.3563ZM176.225 105.3L175.39 105.954C175.86 105.949 176.308 106.066 176.734 106.305C177.16 106.545 177.523 106.924 177.823 107.444C178.132 107.981 178.229 108.52 178.112 109.06C178.01 109.604 177.71 110.024 177.212 110.322L172.961 112.77L171.914 110.95L175.489 108.892C175.735 108.738 175.894 108.554 175.967 108.339C176.053 108.128 176.011 107.875 175.842 107.581C175.597 107.156 175.203 106.933 174.66 106.911C174.13 106.893 173.562 107.058 172.955 107.408L170.641 108.74L169.594 106.92L175.274 103.649L176.225 105.3ZM174.352 115.184L178.447 112.827L177.893 111.865L179.505 110.937L180.058 111.899L182.034 110.761C182.78 110.332 183.509 110.195 184.221 110.351C184.947 110.509 185.545 110.996 186.014 111.811C186.153 112.053 186.269 112.345 186.361 112.684C186.466 113.027 186.501 113.359 186.466 113.679L184.712 113.668C184.775 113.517 184.788 113.37 184.753 113.229C184.732 113.091 184.691 112.971 184.631 112.867C184.481 112.607 184.272 112.444 184.004 112.379C183.736 112.314 183.411 112.392 183.03 112.611L181.106 113.719L182.094 115.435L180.482 116.363L179.494 114.647L175.399 117.004L174.352 115.184ZM179.721 117.776C180.301 117.441 180.899 117.276 181.513 117.281C182.132 117.293 182.713 117.472 183.258 117.816C183.811 118.156 184.272 118.646 184.641 119.287C185.015 119.937 185.205 120.578 185.211 121.209C185.225 121.836 185.075 122.407 184.761 122.922C184.451 123.447 184.006 123.876 183.425 124.21C182.845 124.545 182.245 124.717 181.628 124.726C181.024 124.739 180.45 124.585 179.907 124.263C179.364 123.941 178.9 123.446 178.516 122.779C178.157 122.155 177.957 121.526 177.915 120.892C177.878 120.267 178.009 119.684 178.309 119.142C178.609 118.6 179.079 118.145 179.721 117.776ZM180.763 119.616C180.312 119.876 180.01 120.223 179.856 120.657C179.711 121.087 179.754 121.501 179.983 121.9C180.228 122.324 180.57 122.577 181.009 122.659C181.457 122.736 181.906 122.644 182.357 122.385C182.808 122.126 183.108 121.785 183.258 121.364C183.417 120.938 183.374 120.513 183.129 120.089C182.9 119.69 182.558 119.448 182.105 119.362C181.661 119.272 181.213 119.357 180.763 119.616ZM182.284 129.234C182.015 128.766 181.845 128.281 181.776 127.779C181.711 127.285 181.746 126.815 181.881 126.368L183.316 126.546C183.224 126.968 183.189 127.328 183.211 127.627C183.247 127.93 183.32 128.176 183.43 128.367C183.559 128.592 183.701 128.759 183.855 128.866C184.01 128.973 184.165 128.982 184.321 128.892C184.468 128.808 184.55 128.68 184.567 128.508C184.589 128.346 184.573 128.159 184.52 127.947C184.476 127.73 184.425 127.5 184.366 127.257C184.231 126.642 184.252 126.128 184.429 125.714C184.62 125.304 184.902 124.992 185.275 124.778C185.561 124.613 185.889 124.522 186.26 124.505C186.645 124.491 187.027 124.594 187.407 124.813C187.801 125.037 188.15 125.413 188.455 125.941C188.729 126.418 188.913 126.848 189.008 127.233C189.102 127.617 189.125 128.019 189.078 128.438L187.616 128.363C187.651 128.123 187.652 127.875 187.619 127.617C187.6 127.362 187.544 127.146 187.453 126.968C187.327 126.729 187.179 126.572 187.009 126.497C186.847 126.417 186.706 126.411 186.585 126.481C186.415 126.567 186.32 126.703 186.299 126.888C186.284 127.081 186.31 127.297 186.378 127.535C186.445 127.773 186.502 128.012 186.548 128.251C186.643 128.738 186.631 129.178 186.511 129.57C186.399 129.957 186.131 130.273 185.706 130.518C185.36 130.717 184.978 130.816 184.561 130.814C184.158 130.815 183.757 130.688 183.356 130.434C182.961 130.189 182.604 129.789 182.284 129.234ZM197.377 131.457L198.424 133.277L188.168 139.182L187.12 137.362L197.377 131.457ZM190.7 143.941C190.301 143.248 190.091 142.584 190.072 141.949C190.058 141.322 190.208 140.751 190.522 140.236C190.837 139.72 191.293 139.29 191.891 138.946C192.463 138.616 193.064 138.467 193.693 138.497C194.322 138.527 194.913 138.712 195.466 139.051C196.027 139.386 196.483 139.856 196.832 140.463C197.301 141.277 197.447 142.082 197.27 142.876C197.106 143.674 196.623 144.408 195.82 145.078L192.099 141.682C191.938 142.144 191.995 142.613 192.269 143.09C192.384 143.289 192.528 143.46 192.703 143.602C192.882 143.752 193.08 143.886 193.297 144.003L192.409 145.588C192.061 145.384 191.733 145.135 191.425 144.839C191.121 144.553 190.879 144.253 190.7 143.941ZM193.028 140.68C192.985 140.705 192.946 140.727 192.911 140.747L195.193 142.756C195.365 142.554 195.479 142.321 195.535 142.058C195.6 141.789 195.532 141.482 195.333 141.135C195.098 140.728 194.773 140.483 194.356 140.4C193.938 140.317 193.496 140.41 193.028 140.68ZM200.363 140.974L197.501 140.06L196.864 138.956L199.203 138.959L200.363 140.974ZM192.215 152.826C191.921 152.315 191.732 151.847 191.649 151.421C191.57 151.005 191.548 150.625 191.582 150.283C191.615 149.941 191.655 149.629 191.701 149.349L193.563 149.696C193.496 150 193.455 150.33 193.44 150.684C193.421 151.053 193.537 151.454 193.786 151.887C194.035 152.32 194.365 152.633 194.775 152.823C195.181 153.028 195.597 153.008 196.021 152.764L196.827 152.3C196.464 152.29 196.083 152.169 195.684 151.937C195.294 151.7 194.939 151.304 194.62 150.749C194.325 150.238 194.181 149.687 194.186 149.095C194.205 148.507 194.366 147.953 194.667 147.434C194.976 146.909 195.421 146.48 196.002 146.146C196.6 145.802 197.208 145.636 197.827 145.649C198.455 145.657 199.03 145.804 199.554 146.092C200.077 146.379 200.48 146.769 200.765 147.263C201.049 147.757 201.22 148.225 201.277 148.665C201.348 149.108 201.334 149.474 201.234 149.762L201.759 149.651L202.724 151.328L197.043 154.599C196.489 154.918 195.909 155.044 195.305 154.976C194.692 154.914 194.114 154.692 193.572 154.312C193.027 153.945 192.574 153.45 192.215 152.826ZM197.109 147.949C196.659 148.208 196.365 148.579 196.227 149.062C196.098 149.54 196.161 150 196.416 150.442C196.835 151.17 197.423 151.53 198.179 151.521L199.57 150.72C199.778 150.439 199.884 150.113 199.889 149.741C199.894 149.369 199.789 148.996 199.575 148.624C199.32 148.182 198.958 147.894 198.489 147.76C198.028 147.621 197.569 147.684 197.109 147.949ZM199.341 158.95C199.036 158.421 198.863 157.88 198.822 157.327C198.794 156.778 198.929 156.25 199.226 155.744C199.523 155.239 200.014 154.789 200.699 154.395C201.34 154.025 201.97 153.836 202.587 153.827C203.205 153.817 203.762 153.952 204.258 154.232C204.762 154.507 205.152 154.883 205.426 155.36C205.75 155.923 205.904 156.4 205.886 156.791C205.874 157.19 205.809 157.539 205.693 157.837L206.345 157.617L207.318 159.307L201.637 162.578L200.589 160.758L201.291 160.354C201.155 160.317 200.967 160.252 200.729 160.158C200.495 160.074 200.254 159.935 200.006 159.744C199.757 159.552 199.535 159.288 199.341 158.95ZM201.122 158.617C201.486 159.249 202.037 159.544 202.773 159.501L204.164 158.7C204.382 158.436 204.498 158.127 204.513 157.772C204.533 157.426 204.443 157.08 204.243 156.733C204.019 156.343 203.677 156.09 203.218 155.973C202.767 155.852 202.312 155.924 201.853 156.188C201.549 156.363 201.316 156.589 201.154 156.868C200.991 157.146 200.905 157.438 200.896 157.743C200.892 158.057 200.967 158.348 201.122 158.617ZM212.973 158.548L214.021 160.368L203.765 166.273L202.717 164.453L212.973 158.548ZM206.297 171.032C205.898 170.339 205.688 169.675 205.669 169.04C205.654 168.413 205.804 167.842 206.119 167.326C206.434 166.811 206.89 166.381 207.488 166.036C208.06 165.707 208.66 165.558 209.289 165.588C209.918 165.618 210.509 165.803 211.062 166.142C211.624 166.476 212.08 166.947 212.429 167.553C212.898 168.368 213.044 169.173 212.866 169.967C212.703 170.765 212.22 171.499 211.417 172.169L207.696 168.773C207.535 169.234 207.592 169.704 207.866 170.18C207.981 170.38 208.125 170.55 208.299 170.692C208.478 170.843 208.677 170.977 208.894 171.094L208.006 172.679C207.658 172.475 207.33 172.226 207.021 171.93C206.718 171.643 206.476 171.344 206.297 171.032ZM208.625 167.77C208.581 167.795 208.542 167.818 208.508 167.838L210.79 169.847C210.961 169.644 211.075 169.412 211.132 169.148C211.197 168.88 211.129 168.573 210.93 168.226C210.695 167.819 210.369 167.574 209.952 167.491C209.535 167.408 209.093 167.501 208.625 167.77ZM209.926 177.246C209.657 176.778 209.487 176.293 209.417 175.791C209.352 175.297 209.387 174.827 209.522 174.38L210.957 174.558C210.866 174.98 210.831 175.34 210.853 175.639C210.889 175.942 210.961 176.188 211.071 176.379C211.201 176.604 211.343 176.771 211.497 176.878C211.651 176.985 211.806 176.994 211.962 176.904C212.11 176.82 212.192 176.692 212.208 176.52C212.23 176.358 212.215 176.171 212.162 175.959C212.118 175.742 212.066 175.512 212.007 175.269C211.872 174.654 211.894 174.14 212.071 173.726C212.262 173.316 212.544 173.004 212.916 172.79C213.202 172.625 213.531 172.534 213.902 172.517C214.286 172.503 214.668 172.606 215.049 172.825C215.443 173.049 215.792 173.425 216.096 173.953C216.371 174.43 216.555 174.86 216.649 175.245C216.743 175.629 216.767 176.031 216.72 176.45L215.257 176.375C215.293 176.135 215.294 175.886 215.261 175.629C215.241 175.374 215.186 175.158 215.095 174.98C214.969 174.741 214.821 174.584 214.65 174.509C214.489 174.429 214.347 174.423 214.226 174.493C214.056 174.579 213.961 174.715 213.941 174.9C213.925 175.093 213.952 175.309 214.019 175.547C214.087 175.785 214.144 176.024 214.189 176.263C214.285 176.75 214.273 177.19 214.152 177.582C214.041 177.969 213.773 178.285 213.348 178.53C213.001 178.729 212.62 178.828 212.203 178.826C211.8 178.827 211.398 178.7 210.998 178.446C210.603 178.201 210.245 177.801 209.926 177.246Z" fill="#09090B"/>
<path d="M82.1653 208.82L88.6211 212.696L87.5401 214.497L82.9491 211.74L81.7368 213.759L85.8007 216.199L84.7197 218L80.6559 215.56L79.4282 217.605L84.1994 220.469L83.1184 222.27L76.4826 218.285L82.1653 208.82ZM89.7592 218.611L89.3474 219.588C89.7556 219.355 90.2041 219.24 90.6929 219.241C91.1816 219.243 91.6832 219.399 92.1976 219.707C92.7292 220.027 93.0755 220.45 93.2366 220.979C93.4113 221.503 93.3537 222.017 93.0638 222.519L90.539 226.725L88.7385 225.644L90.8618 222.107C91.0025 221.853 91.0523 221.615 91.0112 221.392C90.9839 221.166 90.8244 220.965 90.5329 220.79C90.1128 220.538 89.6601 220.534 89.1747 220.779C88.703 221.021 88.287 221.442 87.9267 222.042L86.5523 224.331L84.7519 223.25L88.126 217.63L89.7592 218.611ZM93.5954 232.409C93.0896 232.105 92.6969 231.788 92.4175 231.457C92.1466 231.131 91.9426 230.81 91.8055 230.494C91.6684 230.179 91.5518 229.887 91.4559 229.62L93.2516 229.018C93.3407 229.317 93.465 229.625 93.6244 229.942C93.7872 230.273 94.083 230.567 94.5116 230.824C94.9403 231.082 95.3802 231.194 95.8312 231.162C96.2857 231.143 96.6391 230.924 96.8913 230.504L97.37 229.706C97.0475 229.874 96.6556 229.954 96.1943 229.945C95.7381 229.928 95.2357 229.755 94.687 229.425C94.1811 229.121 93.7868 228.71 93.504 228.19C93.2349 227.667 93.1055 227.105 93.116 226.505C93.1316 225.896 93.3119 225.304 93.6567 224.73C94.0119 224.138 94.4631 223.698 95.0102 223.408C95.5625 223.11 96.1371 222.959 96.7339 222.956C97.3307 222.953 97.8735 223.098 98.3622 223.391C98.8509 223.684 99.2272 224.01 99.4912 224.366C99.7689 224.72 99.9344 225.046 99.9874 225.347L100.391 224.994L102.05 225.99L98.6763 231.61C98.3468 232.159 97.9017 232.551 97.3408 232.785C96.7748 233.029 96.1625 233.116 95.504 233.047C94.8489 232.992 94.2127 232.779 93.5954 232.409ZM95.5009 225.767C95.2332 226.213 95.1568 226.68 95.2716 227.169C95.3915 227.649 95.6701 228.021 96.1073 228.283C96.8275 228.716 97.516 228.744 98.173 228.369L98.9991 226.993C99.0438 226.646 98.9779 226.309 98.8013 225.982C98.6248 225.654 98.3522 225.38 97.9835 225.158C97.5463 224.896 97.0901 224.82 96.615 224.932C96.1451 225.034 95.7737 225.313 95.5009 225.767ZM106.618 222.574L108.418 223.655L102.326 233.802L100.526 232.721L106.618 222.574ZM107.554 229.295L109.355 230.376L105.981 235.996L104.18 234.915L107.554 229.295ZM108.713 227.278C108.872 227.013 109.106 226.856 109.415 226.808C109.732 226.765 110.011 226.816 110.251 226.96C110.491 227.104 110.658 227.321 110.753 227.611C110.855 227.906 110.827 228.186 110.667 228.452C110.508 228.718 110.274 228.875 109.965 228.923C109.67 228.967 109.402 228.917 109.162 228.773C108.922 228.629 108.744 228.411 108.627 228.12C108.525 227.825 108.553 227.544 108.713 227.278ZM109.592 238.321C109.129 238.043 108.745 237.702 108.439 237.297C108.143 236.897 107.945 236.469 107.846 236.013L109.186 235.471C109.311 235.884 109.456 236.216 109.62 236.466C109.799 236.713 109.982 236.894 110.171 237.007C110.394 237.141 110.599 237.217 110.786 237.236C110.972 237.255 111.112 237.187 111.205 237.033C111.292 236.887 111.302 236.735 111.233 236.577C111.173 236.425 111.069 236.269 110.92 236.109C110.776 235.941 110.619 235.765 110.449 235.582C110.032 235.11 109.801 234.65 109.755 234.203C109.722 233.752 109.817 233.342 110.038 232.973C110.208 232.69 110.451 232.451 110.766 232.256C111.096 232.057 111.48 231.961 111.919 231.968C112.372 231.971 112.86 232.13 113.383 232.444C113.854 232.727 114.224 233.014 114.494 233.304C114.763 233.594 114.979 233.933 115.142 234.322L113.827 234.968C113.741 234.741 113.621 234.524 113.467 234.314C113.326 234.102 113.173 233.939 113.007 233.828C112.78 233.68 112.574 233.615 112.389 233.632C112.209 233.641 112.083 233.705 112.011 233.825C111.905 233.983 111.887 234.147 111.959 234.319C112.04 234.496 112.168 234.672 112.343 234.846C112.517 235.021 112.683 235.202 112.839 235.389C113.159 235.769 113.363 236.159 113.448 236.56C113.539 236.953 113.458 237.359 113.206 237.779C113 238.122 112.715 238.394 112.349 238.595C111.998 238.792 111.585 238.876 111.112 238.849C110.647 238.826 110.14 238.651 109.592 238.321ZM113.587 240.562L119.679 230.416L121.441 231.473L118.19 236.888C118.593 236.663 119.039 236.552 119.528 236.554C120.017 236.555 120.518 236.711 121.033 237.02C121.564 237.339 121.91 237.762 122.072 238.291C122.246 238.816 122.189 239.329 121.899 239.832L119.374 244.037L117.574 242.956L119.697 239.419C119.838 239.166 119.887 238.927 119.846 238.704C119.819 238.478 119.659 238.277 119.368 238.102C118.948 237.85 118.495 237.846 118.01 238.091C117.538 238.333 117.122 238.754 116.762 239.354L115.387 241.643L113.587 240.562Z" fill="#09090B"/>

<style>

.sun_line{
    cursor: pointer;
    transition: .5s all ease-in-out;
}

.sun_line_1:hover{
    transform: translateY(-15px);
}

</style>


</svg>
