<svg xmlns="http://www.w3.org/2000/svg" xmlns:xlink="http://www.w3.org/1999/xlink" preserveAspectRatio="xMidYMid" width="21" height="18" viewBox="0 0 21 18">
  <defs>
    <style>

      .cls-2 {
        fill: #ffffff;
      }
    </style>
  </defs>
  <path d="M21.000,10.000 C21.000,10.000 20.414,10.000 20.414,10.000 C20.414,10.000 11.707,18.707 11.707,18.707 C11.707,18.707 10.293,17.293 10.293,17.293 C10.293,17.293 17.586,10.000 17.586,10.000 C17.586,10.000 0.000,10.000 0.000,10.000 C0.000,10.000 0.000,8.000 0.000,8.000 C0.000,8.000 17.586,8.000 17.586,8.000 C17.586,8.000 10.293,0.707 10.293,0.707 C10.293,0.707 11.707,-0.707 11.707,-0.707 C11.707,-0.707 20.414,8.000 20.414,8.000 C20.414,8.000 21.000,8.000 21.000,8.000 C21.000,8.000 21.000,10.000 21.000,10.000 Z" id="path-1" class="cls-2" fill-rule="evenodd"/>
</svg>